<?xml version="1.0" encoding="utf-8"?>
<!-- Generator: Adobe Illustrator 18.1.1, SVG Export Plug-In . SVG Version: 6.00 Build 0)  -->
<svg version="1.1" id="Layer_1" xmlns="http://www.w3.org/2000/svg" xmlns:xlink="http://www.w3.org/1999/xlink" x="0px" y="0px"
	 viewBox="0 0 185 185" enable-background="new 0 0 185 185" xml:space="preserve">
<rect x="0" y="0" fill="#5EA091" width="185" height="185"/>
<g>
	<path fill="#FFFFFF" d="M133.088,62.326l-0.02-0.239l-0.001,0c-0.005-0.056-0.009-0.103-0.012-0.14
		c-0.931-21.656-18.775-38.93-40.661-38.93c-22.481,0-40.705,18.224-40.705,40.705c0,22.481,18.224,40.705,40.705,40.705
		c0.002,0,0.005,0,0.007,0l44.207,0.006C135.671,91.679,133.426,66.162,133.088,62.326z M63.533,78.497
		c-2.276-4.44-3.561-9.474-3.561-14.807c0-5.472,1.354-10.626,3.743-15.15l25.777,15.138L63.533,78.497z M90.984,96.156
		c-10.932-0.493-20.457-6.385-25.971-15.075l25.971-14.827V96.156z M90.984,61.103L65.223,45.974
		c5.545-8.51,14.967-14.262,25.761-14.749V61.103z M93.961,96.156V66.303l25.749,15.122C114.164,89.925,104.748,95.67,93.961,96.156
		z M121.221,78.859L95.433,63.715l25.979-14.831c2.277,4.441,3.561,9.474,3.561,14.807C124.973,69.17,123.615,74.331,121.221,78.859
		z"/>
	<g>
		<path fill="#FFFFFF" d="M61.62,133.201c-1.576,0-2.867,0.321-3.877,0.964c-1.009,0.642-1.514,1.613-1.514,2.913
			c0,1.3,0.505,2.294,1.514,2.982c1.009,0.688,3.158,1.43,6.445,2.225c3.287,0.796,5.764,1.912,7.432,3.349
			c1.666,1.438,2.5,3.555,2.5,6.354c0,2.799-1.055,5.069-3.165,6.813c-2.11,1.743-4.879,2.615-8.303,2.615
			c-5.016,0-9.466-1.728-13.35-5.184l3.395-4.083c3.241,2.814,6.606,4.221,10.092,4.221c1.743,0,3.127-0.374,4.152-1.124
			c1.024-0.749,1.537-1.743,1.537-2.982c0-1.239-0.482-2.202-1.445-2.89c-0.963-0.688-2.623-1.315-4.977-1.881
			c-2.355-0.566-4.145-1.085-5.367-1.56c-1.224-0.474-2.309-1.093-3.257-1.858c-1.897-1.437-2.844-3.639-2.844-6.606
			c0-2.966,1.078-5.253,3.234-6.858c2.156-1.606,4.824-2.409,8.005-2.409c2.049,0,4.083,0.337,6.101,1.009
			c2.018,0.673,3.762,1.621,5.23,2.844l-2.89,4.083c-0.948-0.856-2.233-1.56-3.853-2.11
			C64.792,133.476,63.195,133.201,61.62,133.201z"/>
		<path fill="#FFFFFF" d="M103.714,128.98v5.092H86.603v8.487h15.368v4.817H86.603v8.579h17.662v5.092H81.19V128.98H103.714z"/>
		<path fill="#FFFFFF" d="M138.994,145.449L138.994,145.449L138.994,145.449l-5.413,0v0h-6.754v4.327h6.754v4.481
			c-2.049,1.315-4.595,1.973-7.638,1.973c-3.043,0-5.635-1.032-7.776-3.097c-2.141-2.064-3.211-4.801-3.211-8.212
			c0-3.41,1.101-6.162,3.303-8.258c2.202-2.094,4.924-3.142,8.166-3.142c1.681,0,3.157,0.206,4.427,0.619
			c1.269,0.413,2.53,1.155,3.785,2.225l2.89-4.129c-3.059-2.691-6.897-4.037-11.514-4.037c-4.618,0-8.556,1.591-11.813,4.771
			c-3.257,3.181-4.886,7.157-4.886,11.927c0,4.771,1.598,8.716,4.794,11.836c3.196,3.119,7.164,4.679,11.905,4.679
			c5.627,0,9.955-1.667,12.983-5v-6.637h0V145.449z"/>
	</g>
</g>
</svg>
